<mxfile host="Electron" agent="Mozilla/5.0 (X11; Linux x86_64) AppleWebKit/537.36 (KHTML, like Gecko) draw.io/27.0.9 Chrome/134.0.6998.205 Electron/35.4.0 Safari/537.36" version="27.0.9">
  <diagram name="Page-1" id="jQaaKO_kCiqXLzQQQR4n">
    <mxGraphModel dx="1426" dy="843" grid="1" gridSize="10" guides="1" tooltips="1" connect="1" arrows="1" fold="1" page="1" pageScale="1" pageWidth="850" pageHeight="1100" math="0" shadow="0">
      <root>
        <mxCell id="0" />
        <mxCell id="1" parent="0" />
        <mxCell id="dabGgzrLHoHH46WjBzX3-30" value="" style="rounded=0;whiteSpace=wrap;html=1;fillColor=none;" vertex="1" parent="1">
          <mxGeometry x="620" y="90" width="220" height="390" as="geometry" />
        </mxCell>
        <mxCell id="dabGgzrLHoHH46WjBzX3-11" value="" style="rounded=0;whiteSpace=wrap;html=1;fillColor=none;" vertex="1" parent="1">
          <mxGeometry x="30" y="90" width="220" height="390" as="geometry" />
        </mxCell>
        <mxCell id="dabGgzrLHoHH46WjBzX3-8" value="" style="edgeStyle=orthogonalEdgeStyle;rounded=0;orthogonalLoop=1;jettySize=auto;html=1;" edge="1" parent="1" source="dabGgzrLHoHH46WjBzX3-1" target="dabGgzrLHoHH46WjBzX3-2">
          <mxGeometry relative="1" as="geometry" />
        </mxCell>
        <mxCell id="dabGgzrLHoHH46WjBzX3-1" value="Initilize_database" style="rounded=1;whiteSpace=wrap;html=1;" vertex="1" parent="1">
          <mxGeometry x="80" y="130" width="120" height="60" as="geometry" />
        </mxCell>
        <mxCell id="dabGgzrLHoHH46WjBzX3-9" value="" style="edgeStyle=orthogonalEdgeStyle;rounded=0;orthogonalLoop=1;jettySize=auto;html=1;" edge="1" parent="1" source="dabGgzrLHoHH46WjBzX3-2" target="dabGgzrLHoHH46WjBzX3-3">
          <mxGeometry relative="1" as="geometry" />
        </mxCell>
        <mxCell id="dabGgzrLHoHH46WjBzX3-2" value="Create Silver" style="rounded=1;whiteSpace=wrap;html=1;" vertex="1" parent="1">
          <mxGeometry x="80" y="210" width="120" height="60" as="geometry" />
        </mxCell>
        <mxCell id="dabGgzrLHoHH46WjBzX3-10" value="" style="edgeStyle=orthogonalEdgeStyle;rounded=0;orthogonalLoop=1;jettySize=auto;html=1;" edge="1" parent="1" source="dabGgzrLHoHH46WjBzX3-3" target="dabGgzrLHoHH46WjBzX3-4">
          <mxGeometry relative="1" as="geometry" />
        </mxCell>
        <mxCell id="dabGgzrLHoHH46WjBzX3-3" value="Create Gold" style="rounded=1;whiteSpace=wrap;html=1;" vertex="1" parent="1">
          <mxGeometry x="80" y="290" width="120" height="60" as="geometry" />
        </mxCell>
        <mxCell id="dabGgzrLHoHH46WjBzX3-24" style="edgeStyle=orthogonalEdgeStyle;rounded=0;orthogonalLoop=1;jettySize=auto;html=1;" edge="1" parent="1" source="dabGgzrLHoHH46WjBzX3-4" target="dabGgzrLHoHH46WjBzX3-21">
          <mxGeometry relative="1" as="geometry" />
        </mxCell>
        <mxCell id="dabGgzrLHoHH46WjBzX3-4" value="Trigger_bronze_dag" style="rounded=1;whiteSpace=wrap;html=1;" vertex="1" parent="1">
          <mxGeometry x="80" y="370" width="120" height="60" as="geometry" />
        </mxCell>
        <mxCell id="dabGgzrLHoHH46WjBzX3-12" value="&lt;font style=&quot;font-size: 17px;&quot;&gt;ddl_dag&lt;/font&gt;" style="rounded=1;whiteSpace=wrap;html=1;strokeColor=none;" vertex="1" parent="1">
          <mxGeometry x="70" y="80" width="130" height="30" as="geometry" />
        </mxCell>
        <mxCell id="dabGgzrLHoHH46WjBzX3-14" value="" style="edgeStyle=orthogonalEdgeStyle;rounded=0;orthogonalLoop=1;jettySize=auto;html=1;" edge="1" source="dabGgzrLHoHH46WjBzX3-15" target="dabGgzrLHoHH46WjBzX3-17" parent="1">
          <mxGeometry relative="1" as="geometry" />
        </mxCell>
        <mxCell id="dabGgzrLHoHH46WjBzX3-15" value="extract data" style="rounded=1;whiteSpace=wrap;html=1;fillColor=#ffe6cc;strokeColor=#d79b00;" vertex="1" parent="1">
          <mxGeometry x="390" y="140" width="120" height="60" as="geometry" />
        </mxCell>
        <mxCell id="dabGgzrLHoHH46WjBzX3-16" value="" style="edgeStyle=orthogonalEdgeStyle;rounded=0;orthogonalLoop=1;jettySize=auto;html=1;" edge="1" source="dabGgzrLHoHH46WjBzX3-17" target="dabGgzrLHoHH46WjBzX3-19" parent="1">
          <mxGeometry relative="1" as="geometry" />
        </mxCell>
        <mxCell id="dabGgzrLHoHH46WjBzX3-17" value="load data" style="rounded=1;whiteSpace=wrap;html=1;fillColor=#ffe6cc;strokeColor=#d79b00;" vertex="1" parent="1">
          <mxGeometry x="390" y="220" width="120" height="60" as="geometry" />
        </mxCell>
        <mxCell id="dabGgzrLHoHH46WjBzX3-19" value="Trigger_silver_dag" style="rounded=1;whiteSpace=wrap;html=1;fillColor=#ffe6cc;strokeColor=#d79b00;" vertex="1" parent="1">
          <mxGeometry x="390" y="300" width="120" height="60" as="geometry" />
        </mxCell>
        <mxCell id="dabGgzrLHoHH46WjBzX3-21" value="" style="rounded=0;whiteSpace=wrap;html=1;fillColor=none;" vertex="1" parent="1">
          <mxGeometry x="335" y="90" width="220" height="390" as="geometry" />
        </mxCell>
        <mxCell id="dabGgzrLHoHH46WjBzX3-22" value="&lt;font style=&quot;font-size: 17px;&quot;&gt;bronze_dag&lt;/font&gt;" style="rounded=1;whiteSpace=wrap;html=1;strokeColor=#d79b00;fillColor=#ffe6cc;" vertex="1" parent="1">
          <mxGeometry x="380" y="80" width="130" height="30" as="geometry" />
        </mxCell>
        <mxCell id="dabGgzrLHoHH46WjBzX3-25" value="" style="edgeStyle=orthogonalEdgeStyle;rounded=0;orthogonalLoop=1;jettySize=auto;html=1;" edge="1" parent="1" source="dabGgzrLHoHH46WjBzX3-26" target="dabGgzrLHoHH46WjBzX3-28">
          <mxGeometry relative="1" as="geometry" />
        </mxCell>
        <mxCell id="dabGgzrLHoHH46WjBzX3-26" value="load_silver" style="rounded=1;whiteSpace=wrap;html=1;fillColor=#f5f5f5;strokeColor=#666666;fontColor=#333333;" vertex="1" parent="1">
          <mxGeometry x="675" y="140" width="120" height="60" as="geometry" />
        </mxCell>
        <mxCell id="dabGgzrLHoHH46WjBzX3-39" style="edgeStyle=orthogonalEdgeStyle;rounded=0;orthogonalLoop=1;jettySize=auto;html=1;" edge="1" parent="1" source="dabGgzrLHoHH46WjBzX3-28" target="dabGgzrLHoHH46WjBzX3-32">
          <mxGeometry relative="1" as="geometry" />
        </mxCell>
        <mxCell id="dabGgzrLHoHH46WjBzX3-28" value="trigger_gold" style="rounded=1;whiteSpace=wrap;html=1;fillColor=#f5f5f5;strokeColor=#666666;fontColor=#333333;" vertex="1" parent="1">
          <mxGeometry x="675" y="255" width="120" height="60" as="geometry" />
        </mxCell>
        <mxCell id="dabGgzrLHoHH46WjBzX3-31" value="&lt;font style=&quot;font-size: 17px;&quot;&gt;silver_dag&lt;/font&gt;" style="rounded=1;whiteSpace=wrap;html=1;fillColor=#f5f5f5;fontColor=#333333;strokeColor=none;" vertex="1" parent="1">
          <mxGeometry x="665" y="80" width="130" height="30" as="geometry" />
        </mxCell>
        <mxCell id="dabGgzrLHoHH46WjBzX3-32" value="" style="rounded=0;whiteSpace=wrap;html=1;fillColor=none;" vertex="1" parent="1">
          <mxGeometry x="890" y="90" width="220" height="390" as="geometry" />
        </mxCell>
        <mxCell id="dabGgzrLHoHH46WjBzX3-34" value="load_silver" style="rounded=1;whiteSpace=wrap;html=1;fillColor=#fff2cc;strokeColor=#d6b656;" vertex="1" parent="1">
          <mxGeometry x="945" y="140" width="120" height="60" as="geometry" />
        </mxCell>
        <mxCell id="dabGgzrLHoHH46WjBzX3-36" value="trigger_gold" style="rounded=1;whiteSpace=wrap;html=1;fillColor=#fff2cc;strokeColor=#d6b656;" vertex="1" parent="1">
          <mxGeometry x="945" y="220" width="120" height="60" as="geometry" />
        </mxCell>
        <mxCell id="dabGgzrLHoHH46WjBzX3-37" value="&lt;font style=&quot;font-size: 17px;&quot;&gt;gold_dag&lt;/font&gt;" style="rounded=1;whiteSpace=wrap;html=1;fillColor=#fff2cc;strokeColor=#d6b656;" vertex="1" parent="1">
          <mxGeometry x="935" y="80" width="130" height="30" as="geometry" />
        </mxCell>
      </root>
    </mxGraphModel>
  </diagram>
</mxfile>
